<?xml version="1.0" encoding="UTF-8"?>
<svg id="Layer_1" data-name="Layer 1" xmlns="http://www.w3.org/2000/svg" viewBox="0 0 824.04 227.26">
  <defs>
    <style>
      .cls-1 {
        fill: #cea65f;
        stroke-width: 0px;
      }
    </style>
  </defs>
  <g>
    <path class="cls-1" d="M823.67,141.52c-.75-5.51-2.58-10.62-5.46-15.21-2.91-4.64-6.66-8.57-11.13-11.7-4.7-3.29-9.85-6.59-15.73-10.1-2.73-1.63-5.57-3.12-8.31-4.55-1.76-.93-3.53-1.85-5.27-2.81-4.8-2.66-8.52-5.2-11.69-8-4.04-3.57-6.63-7.35-7.91-11.57-1.22-4.02-1.45-8.21-.73-12.82,1.41-8.98,6.86-14.92,15.34-16.74,1.14-.24,2.25-.4,3.3-.46.87-.05,1.73-.08,2.57-.08,11.48,0,19.34,4.74,24.04,14.49,1.09,2.26,1.92,4.64,2.8,7.15.37,1.05.74,2.09,1.12,3.13.23.62.42,1.25.63,1.94.11.35.22.71.34,1.09l.57,1.82,10.65-2.09-3.96-35.05-3.92-.87c-1.73-.39-3.42-.77-5.11-1.11-6.51-1.33-14.26-2.69-22.39-2.69-2.69,0-5.33.15-7.86.45-9.28,1.11-17.09,3.99-23.87,8.79-9.61,6.81-15.65,17.38-16.57,29-.92,11.57,3.19,22.74,11.26,30.63,1.84,1.8,3.54,3.34,5.21,4.71,5.59,4.59,11.67,8.18,17.43,11.45,1.33.76,2.67,1.51,4.01,2.26,3.76,2.11,7.65,4.28,11.3,6.63,3.01,1.94,6.04,4.33,9.26,7.31,3.57,3.32,5.74,7.47,6.45,12.34.48,3.28.63,6.4.46,9.29-.55,9.33-6.62,17.09-15.44,19.76-2.56.78-5.32,1.17-8.2,1.17-1.64,0-3.38-.13-5.16-.38-8.11-1.14-14.72-5.02-20.2-11.86-3.87-4.83-6.85-10.58-9.36-18.1-.2-.6-.4-1.18-.63-1.84l-.94-2.72-10.26,2.65v1.65c0,.21-.01.39-.02.58-.02.47-.04,1.01.06,1.6l1.02,5.98c1.2,7.03,2.44,14.31,3.75,21.45.97,5.3,1.72,5.89,6.48,7.62l.22.08c10.93,3.97,20.95,5.9,30.63,5.9h0c3.33,0,6.68-.24,9.94-.7,10.91-1.55,19.8-5.41,27.17-11.81,10.61-9.21,16.03-23.65,14.13-37.67Z"/>
    <path class="cls-1" d="M415.41,147.88c-.2.44-.37.83-.53,1.21-.29.67-.54,1.25-.81,1.77-.59,1.15-1.18,2.3-1.76,3.45-1.58,3.08-3.2,6.28-4.94,9.3-2.07,3.6-4.77,6.9-8.27,10.1-2.24,2.05-4.9,3.27-7.92,3.64-1.85.23-4,.47-6.09.47h-2.13c-7.52,0-13.79-.06-19.73-.17-1.85-.04-3.91-.28-6.47-.75-2.92-.54-4.59-2.16-5.09-4.95-.38-2.13-.82-4.94-.83-7.71-.06-37.02-.06-69.77,0-100.13.01-2.96.34-6.23,1.01-10,.53-2.99,2.32-4.93,5.33-5.75,2.13-.58,4.39-.99,6.51-1.35,1.44-.24,2.88-.41,4.4-.59.68-.08,1.35-.16,2.03-.24l1.86-.24v-10.65l-66.65.12v10.6l1.88.22c.33.04.64.07.94.1.54.06,1.05.11,1.55.2.98.18,1.96.34,2.94.5,2.45.41,4.99.83,7.4,1.44,2.72.68,4.46,2.54,5.02,5.39.67,3.42.98,6.01.98,8.42.09,36.88.08,73.16.06,100.64,0,2.4-.18,5.05-.56,8.11-.51,4.16-2.57,6.55-6.48,7.52l-.74.18c-1.05.27-2.05.52-3.04.67-2.56.39-5.13.74-7.7,1.09l-4.94.68v10.8l2.3-.18c.36-.03.72-.06,1.08-.1.71-.07,1.39-.14,2.03-.14,27.26-.01,54.52-.01,81.78-.01h25.61l.46-1.51c3.74-12.29,7.65-25.42,10.8-38.93l.47-2.03-11.05-2.84-.74,1.65Z"/>
    <path class="cls-1" d="M722.23,106.89c-.32-3.55-.64-7.22-1.35-10.82-4.77-24.41-18.32-42.3-40.3-53.18-10.18-5.04-21.2-7.6-32.75-7.6-4.06,0-8.27.32-12.49.94-24.25,3.59-42.57,15.93-54.47,36.66-12.19,21.24-14.58,43.85-7.1,67.21,7.03,21.96,21.54,37.49,43.12,46.17,9.24,3.72,18.94,5.6,28.83,5.6,5.89,0,11.94-.67,17.98-1.99,21.93-4.79,38.4-17.2,48.96-36.88,6.22-11.59,9.42-24.6,10.05-40.95v-.16s-.01-.16-.01-.16c-.18-1.61-.32-3.23-.47-4.85ZM690.44,148.9c-2.78,7.82-6.61,14.01-11.7,18.93-6.3,6.09-13.98,9.68-22.85,10.68-2.09.23-4.16.35-6.16.35-15.3,0-27.71-6.68-37.94-20.42-5.91-7.94-9.91-17.28-12.24-28.53-3.2-15.47-2.97-30.44.68-44.51,2.91-11.2,7.86-19.89,15.16-26.54,7.91-7.22,17.15-10.88,27.48-10.88,1.41,0,2.87.07,4.33.2,16.31,1.52,28.61,9.7,37.6,24.99,4.51,7.68,7.51,16.53,8.92,26.34.64,4.43,1.01,8.93,1.28,12.22.09,1.15.18,2.16.26,2.98-.18,15.2-1.58,25.11-4.81,34.19Z"/>
    <path class="cls-1" d="M552.15,148.09l-1.2,2.35c-.29.57-.54,1.08-.82,1.58-.68,1.28-1.35,2.56-2.01,3.84-1.53,2.95-3.11,6-4.88,8.8-1.83,2.9-4.16,5.65-6.41,8.31l-.6.71c-1.66,1.96-3.79,3.16-6.36,3.58-2.81.46-5.16.81-7.54.84-4.36.06-9.02.09-14.24.09-3.68,0-7.35-.02-11.02-.04-2.07-.01-4.31-.18-6.86-.51-3.91-.51-6.19-2.57-6.98-6.3-.4-1.93-.82-4.2-.83-6.39-.07-13.1-.07-26.43-.07-39.31v-7.73h13.07c4.64-.01,9.28,0,13.93.03,2.23.02,4.45.28,6.33.54,3.72.51,6.08,2.44,7.23,5.89.59,1.79,1.08,3.69,1.55,5.52l.31,1.22c.24.91.43,1.83.62,2.74.09.44.18.86.28,1.29l.37,1.68h10.93v-52.2h-10.82l-.58,2.24c-.11.42-.21.81-.3,1.2-.23.95-.44,1.9-.64,2.86-.45,2.07-.88,4.02-1.46,5.95-1.08,3.6-3.35,5.63-6.94,6.2-2.43.38-5.28.78-8.06.81-3.73.05-7.46.06-11.18.06-2.74,0-5.48,0-8.21-.02h-6.14c-.09-.01-.18-.01-.28-.02v-.47c0-16.44,0-32.89,0-49.33,0-.98,0-1.95.08-2.9.14-1.75.31-1.93,2.07-2.14.73-.09,1.51-.09,2.34-.09h.22s11.37-.02,14.12-.02c3.72,0,7.44,0,11.16.04,2.3.02,4.82.18,7.94.51,5.41.57,8.99,3.05,11.27,7.81,2.42,5.06,4.72,10.04,6.16,15.25.15.54.36,1.04.55,1.52.08.21.17.43.26.67l.63,1.66,10.42-1.89-2.33-39.24h-109.67v10.57l2.81.34c.58.07,1.11.13,1.63.21.78.12,1.57.24,2.35.35,1.94.28,3.94.58,5.85.98,3.8.81,5.92,3.07,6.47,6.92.41,2.87.89,6.63.89,10.37.07,32.56.07,65.58,0,98.15,0,2.78-.29,5.81-.9,9.56-.49,3.01-2.26,5-5.26,5.92-2.45.75-5,1.2-7.18,1.55-1.79.29-3.59.46-5.49.64-.83.08-1.67.16-2.5.25l-1.9.21v10.43h116.98l.6-1.16c1.76-3.43,10.28-34.75,10.09-38.34l-.08-1.55-9.75-2.59Z"/>
  </g>
  <g>
    <path class="cls-1" d="M7.66,7.66h211.95v211.95H7.66V7.66ZM0,227.26h227.26V0H0v227.26Z"/>
    <path class="cls-1" d="M167.84,189.38h-22.41v-10h22.41v10ZM139.13,189.38h-22.67v-10h22.67v10ZM110.43,189.38h-24.82v-10h24.82v10ZM79.37,77.47h-19.85v-10h19.85v10ZM79.37,93.46h-19.85v-10h19.85v10ZM79.37,109.45h-19.85v-10h19.85v10ZM79.37,125.43h-19.85v-10h19.85v10ZM79.37,141.42h-19.85v-10h19.85v10ZM79.37,157.41h-19.85v-10h19.85v10ZM79.37,173.4h-19.85v-10h19.85v10ZM79.37,189.38h-19.85v-10h19.85v10ZM85.61,173.4V31.65h-6.24v29.52h-26.26v134.44h121.04v-22.22h-88.54Z"/>
  </g>
</svg>